<?xml version="1.0" encoding="UTF-8"?>
<svg width="382px" height="382px" viewBox="0 0 382 382" version="1.1" xmlns="http://www.w3.org/2000/svg" xmlns:xlink="http://www.w3.org/1999/xlink">
    <!-- Generator: Sketch 52.6 (67491) - http://www.bohemiancoding.com/sketch -->
    <title>linkedin</title>
    <desc>Created with Sketch.</desc>
    <g id="Page-1" stroke="none" stroke-width="1" fill="none" fill-rule="evenodd">
        <g id="linkedin" fill-rule="nonzero">
            <path d="M347.445,0 L34.555,0 C15.471,0 0,15.471 0,34.555 L0,347.444 C0,366.529 15.471,382 34.555,382 L347.444,382 C366.529,382 382,366.529 382,347.444 L382,34.555 C382,15.471 366.529,0 347.445,0 Z" id="Path" fill="#0077B7"></path>
            <path d="M118.207,329.844 C118.207,335.398 113.705,339.9 108.151,339.9 L65.345,339.9 C59.791,339.9 55.289,335.398 55.289,329.844 L55.289,150.403 C55.289,144.849 59.791,140.347 65.345,140.347 L108.151,140.347 C113.705,140.347 118.207,144.849 118.207,150.403 L118.207,329.844 Z" id="Path" fill="#FFFFFF"></path>
            <path d="M86.748,123.432 C64.289,123.432 46.082,105.225 46.082,82.766 C46.082,60.307 64.289,42.1 86.748,42.1 C109.207,42.1 127.414,60.307 127.414,82.766 C127.414,105.225 109.208,123.432 86.748,123.432 Z" id="Path" fill="#FFFFFF"></path>
            <path d="M341.91,330.654 C341.91,335.76 337.77,339.9 332.664,339.9 L286.73,339.9 C281.624,339.9 277.484,335.76 277.484,330.654 L277.484,246.486 C277.484,233.93 281.167,191.465 244.671,191.465 C216.362,191.465 210.62,220.531 209.467,233.575 L209.467,330.654 C209.467,335.76 205.328,339.9 200.221,339.9 L155.795,339.9 C150.689,339.9 146.549,335.76 146.549,330.654 L146.549,149.593 C146.549,144.487 150.689,140.347 155.795,140.347 L200.221,140.347 C205.327,140.347 209.467,144.487 209.467,149.593 L209.467,165.248 C219.964,149.495 235.564,137.336 268.779,137.336 C342.331,137.336 341.91,206.052 341.91,243.808 L341.91,330.654 Z" id="Path" fill="#FFFFFF"></path>
        </g>
    </g>
</svg>